<?xml version="1.0" standalone="no"?>
<!DOCTYPE svg PUBLIC "-//W3C//DTD SVG 20010904//EN"
 "http://www.w3.org/TR/2001/REC-SVG-20010904/DTD/svg10.dtd">
<svg version="1.0" xmlns="http://www.w3.org/2000/svg"
 width="500.000000pt" height="500.000000pt" viewBox="0 0 500.000000 500.000000"
 preserveAspectRatio="xMidYMid meet">
<metadata>
Created by potrace 1.14, written by Peter Selinger 2001-2017
</metadata>
<g transform="translate(0.000000,500.000000) scale(0.100000,-0.100000)"
fill="#000000" stroke="none">
<path d="M0 2500 l0 -2500 2500 0 2500 0 0 2500 0 2500 -2500 0 -2500 0 0
-2500z m2736 783 c14 -15 16 -30 10 -108 -3 -49 -15 -218 -26 -375 -11 -157
-23 -390 -27 -517 -5 -185 -9 -233 -20 -233 -7 0 -13 -4 -13 -9 0 -5 -3 -16
-6 -25 -4 -10 -1 -16 9 -16 9 0 18 8 20 18 3 9 5 -8 6 -39 1 -58 -11 -75 -43
-63 -8 3 -17 0 -22 -7 -5 -9 -2 -10 9 -6 12 4 17 -1 19 -20 3 -26 4 -26 21 -9
16 17 17 16 17 -13 0 -20 -5 -31 -14 -31 -8 0 -18 -5 -22 -12 -5 -8 0 -9 14
-6 16 5 22 2 22 -11 0 -9 -5 -22 -12 -29 -9 -9 -9 -12 0 -12 8 0 12 -16 12
-44 0 -40 -2 -44 -22 -38 -14 3 -19 2 -14 -6 4 -7 14 -12 22 -12 11 0 14 -19
14 -99 0 -150 13 -143 -257 -149 l-221 -5 -14 29 c-12 24 -13 81 -7 344 8 313
35 928 44 985 2 17 7 66 10 110 21 328 27 391 36 402 13 15 65 19 276 21 141
2 164 0 179 -15z m1340 -10 c15 -16 16 -35 11 -193 -6 -188 -9 -206 -37 -215
-9 -3 -182 -23 -384 -44 -202 -21 -369 -41 -373 -45 -7 -7 -25 -207 -19 -214
3 -2 94 1 203 7 355 20 369 20 392 5 20 -14 21 -24 21 -183 0 -124 -3 -171
-13 -179 -7 -6 -147 -29 -311 -51 -164 -22 -302 -43 -305 -47 -7 -6 -21 -207
-15 -213 2 -3 167 1 366 7 317 10 366 9 385 -4 23 -14 23 -18 23 -207 0 -139
-4 -198 -12 -210 -11 -15 -84 -21 -592 -48 -319 -16 -590 -28 -603 -24 -13 3
-28 16 -33 30 -18 46 13 865 51 1345 28 368 35 420 52 437 12 13 100 19 488
38 619 29 683 30 705 8z m-2779 -26 c16 -16 16 -31 -5 -310 -66 -840 -69 -917
-37 -992 21 -51 59 -75 122 -75 100 0 160 40 193 127 27 73 36 165 59 613 33
620 33 619 46 637 12 16 33 18 205 18 180 0 193 -1 207 -20 13 -17 14 -47 8
-195 -3 -96 -10 -335 -15 -530 -10 -391 -23 -511 -69 -648 -77 -231 -235 -384
-451 -437 -36 -9 -126 -19 -200 -22 -276 -11 -427 54 -511 219 -16 32 -36 86
-45 120 -22 86 -30 451 -15 645 14 176 79 798 86 831 3 13 16 27 28 32 12 5
102 8 199 7 154 -2 180 -4 195 -20z"/>
<path d="M2309 3233 c-2 -11 -7 -75 -12 -179 -5 -86 -4 -91 14 -87 21 6 25 18
9 28 -15 9 -12 35 5 35 15 0 45 49 45 75 0 8 5 15 10 15 6 0 10 7 10 15 0 8 5
15 11 15 7 0 9 9 6 22 -4 15 1 30 15 45 21 23 21 23 1 23 -11 0 -23 -3 -26 -7
-11 -10 -57 -13 -57 -2 0 11 -29 12 -31 2z"/>
<path d="M2470 3230 c-13 -8 -13 -11 -1 -22 11 -10 14 -10 18 0 3 6 14 12 26
13 21 0 21 1 2 9 -26 11 -27 11 -45 0z"/>
<path d="M2296 2931 c-3 -5 -4 -47 -1 -94 3 -47 0 -118 -6 -158 -6 -41 -10
-83 -9 -94 3 -53 1 -125 -5 -170 -3 -27 -6 -63 -5 -78 0 -16 -3 -34 -7 -40 -5
-7 -8 -58 -8 -114 0 -57 3 -97 7 -90 3 7 7 33 6 57 0 25 6 79 14 120 13 64 13
75 1 78 -12 3 -11 7 2 22 11 13 15 28 11 43 -3 14 1 47 9 74 10 35 12 59 6 81
-6 20 -6 45 0 65 5 17 9 46 9 62 -1 17 3 50 9 75 9 43 8 53 -5 113 -4 19 -1
29 10 33 9 3 16 10 16 15 0 12 -47 12 -54 0z"/>
<path d="M2595 2390 c4 -6 11 -8 16 -5 14 9 11 15 -7 15 -8 0 -12 -5 -9 -10z"/>
<path d="M2530 2320 c0 -5 7 -10 16 -10 8 0 12 5 9 10 -3 6 -10 10 -16 10 -5
0 -9 -4 -9 -10z"/>
<path d="M2598 2193 c7 -3 16 -2 19 1 4 3 -2 6 -13 5 -11 0 -14 -3 -6 -6z"/>
<path d="M2570 2136 c0 -8 -6 -17 -12 -20 -7 -3 -2 -4 12 -3 28 2 42 37 16 37
-9 0 -16 -6 -16 -14z"/>
<path d="M2530 2096 c0 -2 9 -6 20 -9 11 -3 20 -1 20 4 0 5 -9 9 -20 9 -11 0
-20 -2 -20 -4z"/>
<path d="M2580 2052 c0 -5 7 -9 15 -9 8 0 12 4 9 9 -3 4 -9 8 -15 8 -5 0 -9
-4 -9 -8z"/>
<path d="M2247 2044 c-4 -4 -7 -19 -6 -33 l0 -26 10 24 c10 26 8 47 -4 35z"/>
<path d="M2487 1993 c-4 -3 2 -13 14 -21 24 -17 37 -9 19 13 -14 16 -23 19
-33 8z"/>
<path d="M2480 1930 c0 -5 5 -10 10 -10 6 0 10 5 10 10 0 6 -4 10 -10 10 -5 0
-10 -4 -10 -10z"/>
<path d="M2570 1920 c0 -5 4 -10 9 -10 6 0 13 5 16 10 3 6 -1 10 -9 10 -9 0
-16 -4 -16 -10z"/>
<path d="M2548 1833 c-9 -2 -19 -11 -22 -19 -7 -17 -5 -17 29 0 27 14 23 26
-7 19z"/>
<path d="M2565 1780 c-3 -5 1 -10 9 -10 9 0 16 5 16 10 0 6 -4 10 -9 10 -6 0
-13 -4 -16 -10z"/>
<path d="M2460 1729 c0 -5 9 -9 20 -9 11 0 20 2 20 4 0 2 -9 6 -20 9 -11 3
-20 1 -20 -4z"/>
<path d="M2607 1707 c-4 -10 2 -13 19 -9 13 2 24 8 24 13 0 14 -37 10 -43 -4z"/>
<path d="M2545 1680 c-3 -5 -1 -10 4 -10 6 0 11 -7 11 -15 0 -8 4 -15 9 -15 5
0 8 11 7 25 -1 25 -19 34 -31 15z"/>
<path d="M2608 1633 c6 -2 18 -2 25 0 6 3 1 5 -13 5 -14 0 -19 -2 -12 -5z"/>
<path d="M2617 1604 c-4 -4 -4 -10 -1 -15 6 -10 34 0 34 12 0 10 -24 12 -33 3z"/>
<path d="M2567 1588 c-6 -20 4 -49 17 -45 18 6 20 57 2 57 -8 0 -16 -6 -19
-12z"/>
<path d="M2630 1560 c8 -5 20 -10 25 -10 6 0 3 5 -5 10 -8 5 -19 10 -25 10 -5
0 -3 -5 5 -10z"/>
<path d="M3475 3180 c3 -5 8 -10 11 -10 2 0 4 5 4 10 0 6 -5 10 -11 10 -5 0
-7 -4 -4 -10z"/>
<path d="M3390 3075 c-11 -13 -8 -15 13 -15 19 0 25 4 21 15 -4 8 -10 15 -14
15 -4 0 -13 -7 -20 -15z"/>
<path d="M3385 3010 c3 -5 10 -10 16 -10 5 0 9 5 9 10 0 6 -7 10 -16 10 -8 0
-12 -4 -9 -10z"/>
<path d="M3510 3000 c0 -5 5 -10 10 -10 6 0 10 5 10 10 0 6 -4 10 -10 10 -5 0
-10 -4 -10 -10z"/>
<path d="M3445 2990 c-3 -5 -1 -10 4 -10 6 0 11 5 11 10 0 6 -2 10 -4 10 -3 0
-8 -4 -11 -10z"/>
<path d="M3230 2520 c0 -5 5 -10 10 -10 6 0 10 5 10 10 0 6 -4 10 -10 10 -5 0
-10 -4 -10 -10z"/>
<path d="M3850 2490 c0 -11 7 -20 15 -20 8 0 15 9 15 20 0 11 -7 20 -15 20 -8
0 -15 -9 -15 -20z"/>
<path d="M3280 2440 c0 -5 7 -10 16 -10 8 0 12 5 9 10 -3 6 -10 10 -16 10 -5
0 -9 -4 -9 -10z"/>
<path d="M3184 2284 c3 -9 6 -18 6 -20 0 -13 19 -1 23 16 4 15 0 20 -15 20
-14 0 -18 -5 -14 -16z"/>
<path d="M3832 2280 c0 -14 2 -19 5 -12 2 6 2 18 0 25 -3 6 -5 1 -5 -13z"/>
<path d="M3135 2260 c3 -5 8 -10 11 -10 2 0 4 5 4 10 0 6 -5 10 -11 10 -5 0
-7 -4 -4 -10z"/>
<path d="M3211 2233 c-9 -10 -6 -13 19 -13 18 0 30 5 30 13 0 7 -8 13 -18 13
-10 0 -24 -6 -31 -13z"/>
<path d="M3157 2233 c-15 -15 -6 -43 13 -43 11 0 20 6 20 14 0 17 -24 38 -33
29z"/>
<path d="M3140 2170 c0 -5 5 -10 10 -10 6 0 10 5 10 10 0 6 -4 10 -10 10 -5 0
-10 -4 -10 -10z"/>
<path d="M3208 2153 c6 -2 18 -2 25 0 6 3 1 5 -13 5 -14 0 -19 -2 -12 -5z"/>
<path d="M3158 2103 c7 -3 16 -2 19 1 4 3 -2 6 -13 5 -11 0 -14 -3 -6 -6z"/>
<path d="M3430 1810 c0 -5 5 -10 10 -10 6 0 10 5 10 10 0 6 -4 10 -10 10 -5 0
-10 -4 -10 -10z"/>
<path d="M2860 1620 c0 -5 5 -10 10 -10 6 0 10 5 10 10 0 6 -4 10 -10 10 -5 0
-10 -4 -10 -10z"/>
<path d="M3038 1613 c7 -3 16 -2 19 1 4 3 -2 6 -13 5 -11 0 -14 -3 -6 -6z"/>
<path d="M3878 1613 c7 -3 16 -2 19 1 4 3 -2 6 -13 5 -11 0 -14 -3 -6 -6z"/>
<path d="M2978 1593 c7 -3 16 -2 19 1 4 3 -2 6 -13 5 -11 0 -14 -3 -6 -6z"/>
<path d="M3382 1583 c4 -22 43 -25 43 -3 0 8 -11 16 -23 18 -19 3 -23 0 -20
-15z"/>
<path d="M3080 1578 c0 -7 5 -20 10 -28 8 -12 10 -9 10 13 0 15 -4 27 -10 27
-5 0 -10 -6 -10 -12z"/>
<path d="M3171 1541 c-8 -5 -9 -11 -3 -15 5 -3 15 1 22 9 14 16 3 20 -19 6z"/>
<path d="M2990 1530 c0 -5 9 -10 20 -10 11 0 20 5 20 10 0 6 -9 10 -20 10 -11
0 -20 -4 -20 -10z"/>
<path d="M2006 3194 c-3 -9 -6 -42 -6 -75 0 -43 4 -59 14 -59 13 0 26 59 26
121 0 31 -24 40 -34 13z"/>
<path d="M909 3158 c0 -2 -2 -19 -4 -38 -1 -19 -7 -64 -12 -100 -6 -36 -6 -78
-2 -94 5 -16 4 -36 -1 -47 -13 -23 -13 -119 -1 -119 16 0 24 22 11 30 -8 5 -9
10 -2 14 18 11 40 356 22 356 -5 0 -10 -1 -11 -2z"/>
<path d="M881 2551 c-10 -6 -10 -10 -1 -16 13 -8 24 -1 19 14 -3 6 -10 7 -18
2z"/>
<path d="M877 2443 c-4 -3 -7 -11 -7 -17 0 -6 5 -5 12 2 6 6 9 14 7 17 -3 3
-9 2 -12 -2z"/>
<path d="M1350 1830 c0 -5 11 -10 24 -10 14 0 28 5 31 10 4 6 -7 10 -24 10
-17 0 -31 -4 -31 -10z"/>
<path d="M1300 1760 c0 -5 5 -10 10 -10 6 0 10 5 10 10 0 6 -4 10 -10 10 -5 0
-10 -4 -10 -10z"/>
</g>
</svg>
